{"title":"Monga.2010.DVDRip.XviD.FEEL-FREE","uid":5635784,"size":1428630927,"categoryP":"video","categoryS":"movies","magnet":"?xt=urn:btih:8eaa78f943e42c54bfc4df9d3005b9defa5392d5&amp;dn=Monga.2010.DVDRip.XviD.FEEL-FREE&amp;tr=udp%3A%2F%2Ftracker.openbittorrent.com%3A80&amp;tr=udp%3A%2F%2Fopen.demonii.com%3A1337&amp;tr=udp%3A%2F%2Ftracker.coppersurfer.tk%3A6969&amp;tr=udp%3A%2F%2Fexodus.desync.com%3A6969","seeders":0,"leechers":1,"uploader":"hiest","files":9,"time":1276884375,"description":"Genre:Action/Drama \nLanguage:Min Nan | Mandarin\nIMDb:http://www.imdb.com/title/tt1604900/\nSubtitles:ENGLISH\nEncoder: Tony2\n...........................................\nGeneral\nComplete name : Monga.2010.DVDRip.XviD.FEEL-FREE\nFormat : AVI\nFormat/Info : Audio Video Interleave\nFormat profile : OpenDML\nFile size : 1.32 GiB\nOverall bit rate : 490 Kbps\n............................................\nVideo\nFormat : xvid\nCodec ID : xvid\nDuration : 6h 25mn\nBit rate : 438 Kbps\nWidth : 704 pixels\nHeight : 304 pixels\nDisplay aspect ratio : 2.35:1\nFrame rate : 23.976 fps\nResolution : 24 bits\nBits/(Pixel*Frame) : 0.085\nStream size : 1.18 GiB (89%)\n............................................\nAudio\nID : 1\nFormat : MPEG Audio\nFormat version : Version 1\nFormat profile : Layer 3\nCodec ID : 55\nCodec ID/Hint : MP3\nDuration : 2h 20mn\nBit rate mode : Constant\nBit rate : 128 Kbps\nChannel(s) : 2 channels\nSampling rate : 48.0 KHz\nResolution : 16 bits\nStream size : 129 MiB (10%)\nAlignment : Aligned on interleaves\nInterleave, duration : 24 ms (0.58 video frame)\nInterleave, preload duration : 24 ms\nWriting library : LAME3.97\n...........................................\nScreenshots\n &lt;a href=&quot;\nhttp://postimg.com/image/17000/16548.jpg&quot; rel=&quot;nofollow&quot; target=&quot;_NEW&quot;&gt;\nhttp://postimg.com/image/17000/16548.jpg&lt;/a&gt;","torrent":{"xt":"urn:btih:8eaa78f943e42c54bfc4df9d3005b9defa5392d5","amp;dn":"Monga.2010.DVDRip.XviD.FEEL-FREE","amp;tr":["udp%3A%2F%2Ftracker.openbittorrent.com%3A80","udp%3A%2F%2Fopen.demonii.com%3A1337","udp%3A%2F%2Ftracker.coppersurfer.tk%3A6969","udp%3A%2F%2Fexodus.desync.com%3A6969"],"infoHash":"8eaa78f943e42c54bfc4df9d3005b9defa5392d5","infoHashBuffer":{"type":"Buffer","data":[142,170,120,249,67,228,44,84,191,196,223,157,48,5,185,222,250,83,146,213]},"announce":[],"urlList":[]}}